<?xml version="1.0" standalone="no"?>
<!DOCTYPE svg PUBLIC "-//W3C//DTD SVG 20010904//EN"
 "http://www.w3.org/TR/2001/REC-SVG-20010904/DTD/svg10.dtd">
<svg version="1.0" xmlns="http://www.w3.org/2000/svg"
 width="700.000000pt" height="700.000000pt" viewBox="0 0 700.000000 700.000000"
 preserveAspectRatio="xMidYMid meet">
<metadata>
Created by potrace 1.14, written by Peter Selinger 2001-2017
</metadata>
<g transform="translate(0.000000,700.000000) scale(0.100000,-0.100000)"
fill="#000000" stroke="none">
<path d="M3448 6475 c-2 -1 -53 -5 -113 -9 -94 -5 -215 -18 -290 -31 -11 -1
-38 -6 -60 -10 -78 -13 -268 -57 -327 -76 -33 -10 -64 -19 -69 -19 -4 0 -20
-5 -36 -11 -15 -6 -30 -11 -33 -11 -7 0 -62 -21 -190 -71 -320 -126 -650 -328
-910 -556 -100 -88 -212 -200 -294 -294 -75 -86 -216 -273 -216 -286 0 -6 -4
-11 -8 -11 -5 0 -15 -12 -23 -27 -8 -16 -16 -30 -20 -33 -6 -5 -77 -128 -115
-197 -13 -24 -20 -43 -16 -43 4 0 2 -4 -4 -8 -38 -25 -205 -469 -230 -612 -2
-14 -7 -36 -10 -50 -3 -14 -5 -25 -5 -25 0 0 -4 -19 -9 -42 -30 -131 -52 -351
-53 -518 0 -90 11 -301 19 -338 2 -10 6 -45 10 -76 6 -55 8 -66 19 -126 28
-141 96 -379 142 -490 13 -33 32 -78 41 -100 55 -133 234 -451 284 -505 10
-11 18 -22 18 -26 0 -5 95 -130 110 -144 3 -3 19 -23 35 -45 66 -89 334 -346
465 -445 25 -19 47 -37 50 -40 40 -42 361 -236 505 -305 174 -83 305 -138 305
-128 0 3 6 1 13 -5 17 -14 244 -85 342 -107 11 -3 34 -8 50 -12 17 -4 32 -7
35 -8 9 -2 94 -17 120 -21 14 -3 36 -7 50 -9 59 -12 75 -14 133 -21 34 -3 76
-8 92 -11 17 -2 138 -5 270 -7 213 -3 312 1 450 19 22 2 58 7 80 10 22 3 51 7
65 10 28 6 59 11 110 20 165 27 443 113 645 199 95 40 310 148 313 157 2 5 9
9 16 9 6 0 34 15 61 32 28 18 62 39 75 46 63 33 323 229 400 302 117 110 190
183 248 249 37 42 69 78 72 81 30 27 184 242 247 345 165 269 308 625 359 895
45 241 57 361 57 585 0 149 -5 241 -19 340 -4 22 -7 51 -9 65 -8 83 -72 362
-94 415 -5 11 -19 52 -31 90 -61 187 -181 430 -306 622 -61 95 -164 236 -183
253 -3 3 -24 28 -46 55 -92 116 -337 346 -490 461 -253 191 -605 378 -885 469
-30 10 -72 24 -92 31 -31 11 -201 57 -263 70 -100 22 -148 31 -209 39 -27 3
-52 8 -55 9 -3 2 -37 6 -76 10 -38 4 -95 9 -125 12 -55 5 -387 13 -392 9z"/>
</g>
</svg>
